<svg width="137" height="67" viewBox="0 0 137 67" fill="none" xmlns="http://www.w3.org/2000/svg">
<path d="M13.6579 24.3054C9.05696 24.3054 5.66731 23.3282 3.48899 21.3738C1.31066 19.4194 0.221493 16.6303 0.221493 13.0066C0.221493 9.36245 1.31066 6.48176 3.48899 4.36451C5.66731 2.24725 9.05696 1.18863 13.6579 1.18863C20.0911 1.18863 24.3969 3.39749 26.5752 7.81522C24.743 8.44633 22.5952 9.39298 20.1318 10.6552C19.5414 9.51513 18.605 8.67027 17.3224 8.1206C16.0602 7.57092 14.7674 7.29609 13.4441 7.29609C11.4898 7.29609 10.0341 7.81522 9.07731 8.85349C8.12048 9.8714 7.64206 11.1336 7.64206 12.6401C7.64206 14.2688 8.15102 15.6022 9.16893 16.6405C10.2072 17.6584 11.785 18.1674 13.9022 18.1674C15.5919 18.1674 16.9356 17.8925 17.9331 17.3429C18.9307 16.7728 19.6636 15.8771 20.1318 14.6556C21.8012 15.5513 23.9388 16.5591 26.5447 17.6788C25.5267 20.1421 23.8268 21.8624 21.4449 22.8396C19.063 23.8168 16.4673 24.3054 13.6579 24.3054ZM38.8622 24.3054C35.3809 24.3054 32.8158 23.5114 31.1668 21.9235C29.5381 20.3152 28.7238 18.2081 28.7238 15.6022C28.7238 13.0575 29.5381 10.9911 31.1668 9.40316C32.8158 7.81522 35.3809 7.02125 38.8622 7.02125C41.2034 7.02125 43.1578 7.40806 44.7253 8.18167C46.3133 8.93492 47.4839 9.96301 48.2371 11.2659C48.9904 12.5485 49.367 13.9939 49.367 15.6022C49.367 18.2284 48.4916 20.3355 46.7408 21.9235C45.0103 23.5114 42.3841 24.3054 38.8622 24.3054ZM38.9843 19.114C40.3076 19.114 41.295 18.7985 41.9464 18.1674C42.5979 17.5363 42.9236 16.6914 42.9236 15.6328C42.9236 14.6352 42.5979 13.8209 41.9464 13.1898C41.295 12.5383 40.3076 12.2126 38.9843 12.2126C37.661 12.2126 36.694 12.5281 36.0833 13.1593C35.4725 13.7904 35.1672 14.6149 35.1672 15.6328C35.1672 16.6914 35.4725 17.5363 36.0833 18.1674C36.694 18.7985 37.661 19.114 38.9843 19.114ZM61.3477 24.3054C57.8664 24.3054 55.3013 23.5114 53.6522 21.9235C52.0236 20.3152 51.2093 18.2081 51.2093 15.6022C51.2093 13.0575 52.0236 10.9911 53.6522 9.40316C55.3013 7.81522 57.8664 7.02125 61.3477 7.02125C63.6888 7.02125 65.6432 7.40806 67.2108 8.18167C68.7988 8.93492 69.9694 9.96301 70.7226 11.2659C71.4759 12.5485 71.8525 13.9939 71.8525 15.6022C71.8525 18.2284 70.9771 20.3355 69.2263 21.9235C67.4958 23.5114 64.8696 24.3054 61.3477 24.3054ZM61.4698 19.114C62.7931 19.114 63.7805 18.7985 64.4319 18.1674C65.0834 17.5363 65.4091 16.6914 65.4091 15.6328C65.4091 14.6352 65.0834 13.8209 64.4319 13.1898C63.7805 12.5383 62.7931 12.2126 61.4698 12.2126C60.1465 12.2126 59.1795 12.5281 58.5688 13.1593C57.958 13.7904 57.6526 14.6149 57.6526 15.6328C57.6526 16.6914 57.958 17.5363 58.5688 18.1674C59.1795 18.7985 60.1465 19.114 61.4698 19.114ZM95.5595 7.29609L87.9862 14.1975C90.5717 17.862 92.9841 21.1295 95.2236 24H87.1312L85.5738 21.4959C84.5559 19.8062 83.884 18.7069 83.5583 18.1979L81.0237 20.5187V24H74.0001C74.163 20.1319 74.2444 16.213 74.2444 12.2431C74.2444 8.25292 74.163 4.25254 74.0001 0.241968H81.0237V13.1898C82.9984 11.1743 84.8612 9.20976 86.612 7.29609H95.5595ZM106.739 24.111C106.206 24.111 105.777 23.9852 105.451 23.7335C105.126 23.467 104.874 23.119 104.696 22.6897C104.518 22.2603 104.393 21.7717 104.319 21.2239C104.259 20.6761 104.222 20.1134 104.208 19.536C104.193 18.9438 104.178 18.3663 104.163 17.8037C104.163 17.2411 104.141 16.7303 104.097 16.2713C103.934 16.2713 103.763 16.2787 103.586 16.2935C103.408 16.3083 103.216 16.3157 103.008 16.3157C102.949 16.3157 102.868 16.2935 102.764 16.2491C102.675 16.2047 102.579 16.1454 102.475 16.0714C102.386 15.9826 102.305 15.8789 102.231 15.7605C102.172 15.642 102.142 15.5014 102.142 15.3385C102.142 15.0424 102.231 14.7907 102.409 14.5834C102.586 14.3761 102.786 14.2725 103.008 14.2725C103.201 14.2725 103.393 14.2799 103.586 14.2947C103.778 14.2947 103.985 14.3021 104.208 14.3169C104.208 14.1244 104.215 13.8283 104.23 13.4285C104.259 13.0288 104.304 12.6364 104.363 12.2515C104.437 11.8665 104.541 11.526 104.674 11.2298C104.807 10.9337 104.985 10.7857 105.207 10.7857C105.325 10.7857 105.451 10.8745 105.585 11.0522C105.733 11.215 105.807 11.4371 105.807 11.7184C105.807 12.3847 105.784 12.8807 105.74 13.2064C105.71 13.5322 105.681 13.7765 105.651 13.9393L105.585 14.3391C106.118 14.3391 106.651 14.3317 107.184 14.3169C107.731 14.3021 108.279 14.2947 108.827 14.2947C108.931 14.2947 109.02 14.3317 109.094 14.4057C109.168 14.4798 109.227 14.576 109.271 14.6944C109.316 14.7981 109.345 14.9165 109.36 15.0498C109.39 15.1682 109.404 15.2793 109.404 15.3829C109.404 15.6939 109.323 15.9307 109.16 16.0936C109.012 16.2417 108.864 16.3157 108.716 16.3157L105.562 16.2713C105.562 16.4045 105.555 16.5822 105.54 16.8043C105.54 17.0116 105.54 17.2411 105.54 17.4928C105.54 17.7445 105.533 18.011 105.518 18.2923C105.518 18.5588 105.518 18.8179 105.518 19.0696C105.518 19.4694 105.533 19.8543 105.562 20.2245C105.592 20.5798 105.644 20.8981 105.718 21.1795C105.807 21.4608 105.925 21.6903 106.073 21.8679C106.221 22.0308 106.421 22.1122 106.673 22.1122C106.85 22.1122 107.028 22.0752 107.206 22.0012C107.398 21.9272 107.569 21.8457 107.717 21.7569C107.879 21.6533 108.013 21.5644 108.116 21.4904C108.22 21.4164 108.287 21.3793 108.316 21.3793C108.494 21.3793 108.612 21.4386 108.672 21.557C108.731 21.6607 108.76 21.8161 108.76 22.0234C108.76 22.2455 108.686 22.4824 108.538 22.7341C108.405 22.971 108.235 23.1931 108.028 23.4004C107.82 23.6076 107.598 23.7779 107.361 23.9112C107.124 24.0444 106.917 24.111 106.739 24.111ZM110.34 20.1801C110.34 19.4546 110.466 18.7365 110.718 18.0258C110.97 17.3003 111.318 16.6562 111.762 16.0936C112.206 15.5162 112.717 15.0572 113.294 14.7167C113.886 14.3613 114.516 14.1836 115.182 14.1836C115.685 14.1836 116.159 14.3021 116.603 14.539C117.062 14.7759 117.455 15.0868 117.78 15.4718C118.106 15.8419 118.365 16.2713 118.558 16.7599C118.75 17.2337 118.846 17.7075 118.846 18.1813C118.846 18.433 118.832 18.6773 118.802 18.9141C118.772 19.1362 118.735 19.3657 118.691 19.6026C118.661 19.8247 118.632 20.0616 118.602 20.3133C118.572 20.565 118.558 20.8463 118.558 21.1573C118.558 21.5718 118.617 21.8605 118.735 22.0234C118.854 22.1863 119.024 22.2677 119.246 22.2677C119.379 22.2677 119.505 22.1937 119.624 22.0456C119.757 21.8976 119.875 21.8087 119.979 21.7791C120.364 21.7791 120.556 22.0604 120.556 22.623C120.556 22.8007 120.519 22.9784 120.445 23.1561C120.371 23.3337 120.268 23.4966 120.135 23.6447C120.001 23.7779 119.846 23.8964 119.668 24C119.49 24.0888 119.298 24.1333 119.091 24.1333C118.883 24.1333 118.676 24.074 118.469 23.9556C118.276 23.8371 118.099 23.6891 117.936 23.5114C117.773 23.3189 117.64 23.1042 117.536 22.8673C117.432 22.6156 117.381 22.3565 117.381 22.09C116.936 22.6527 116.433 23.1487 115.87 23.578C115.323 24.0074 114.716 24.2221 114.049 24.2221C113.62 24.2221 113.183 24.1184 112.739 23.9112C112.31 23.7039 111.917 23.4226 111.562 23.0672C111.207 22.6971 110.91 22.2677 110.674 21.7791C110.451 21.2757 110.34 20.7427 110.34 20.1801ZM111.717 20.1134C111.717 20.4392 111.791 20.7353 111.939 21.0018C112.102 21.2683 112.31 21.4978 112.561 21.6903C112.828 21.8679 113.116 22.0086 113.427 22.1122C113.753 22.2159 114.071 22.2677 114.382 22.2677C115.034 22.2677 115.552 22.127 115.937 21.8457C116.322 21.5496 116.626 21.1869 116.848 20.7575C117.07 20.3133 117.225 19.8395 117.314 19.3361C117.403 18.8179 117.484 18.3293 117.558 17.8703C117.558 17.7075 117.477 17.5298 117.314 17.3373C117.166 17.13 116.981 16.945 116.759 16.7821C116.537 16.6044 116.292 16.4564 116.026 16.3379C115.774 16.2195 115.545 16.1602 115.337 16.1602C114.79 16.1602 114.294 16.2787 113.849 16.5156C113.405 16.7525 113.02 17.0634 112.695 17.4484C112.384 17.8185 112.139 18.2405 111.962 18.7143C111.799 19.1881 111.717 19.6544 111.717 20.1134ZM15.8788 58.3516C10.5807 58.3516 6.67751 57.2264 4.16913 54.9759C1.66076 52.7254 0.406567 49.5137 0.406567 45.3409C0.406567 41.1446 1.66076 37.8275 4.16913 35.3894C6.67751 32.9514 10.5807 31.7324 15.8788 31.7324C23.2867 31.7324 28.2449 34.2759 30.7533 39.363C28.6434 40.0897 26.1702 41.1798 23.3336 42.6333C22.6538 41.3205 21.5754 40.3476 20.0985 39.7146C18.6451 39.0817 17.1564 38.7652 15.6327 38.7652C13.3822 38.7652 11.706 39.363 10.6042 40.5586C9.50237 41.7307 8.95146 43.1842 8.95146 44.9189C8.95146 46.7943 9.53753 48.3298 10.7097 49.5254C11.9053 50.6976 13.7221 51.2836 16.1601 51.2836C18.1059 51.2836 19.6531 50.9672 20.8018 50.3342C21.9505 49.6778 22.7944 48.6463 23.3336 47.2398C25.2559 48.2712 27.7174 49.4317 30.7181 50.721C29.546 53.5576 27.5885 55.5385 24.8457 56.6638C22.1029 57.789 19.1139 58.3516 15.8788 58.3516ZM47.2931 58C47.4337 54.5539 47.504 51.3774 47.504 48.4705C47.504 47.439 47.2462 46.6185 46.7304 46.009C46.2381 45.3995 45.6052 45.0947 44.8316 45.0947C44.0111 45.0947 43.3078 45.4933 42.7217 46.2903C42.1591 47.0874 41.8778 48.1775 41.8778 49.5606L41.8426 49.4903C41.8426 53.3114 41.8895 56.148 41.9833 58H33.579C33.7666 54.6242 33.8603 50.0529 33.8603 44.286C33.8603 38.519 33.7666 33.9477 33.579 30.5719H41.9481L41.9833 41.4025L41.9481 43.2662C42.5107 41.6252 43.3429 40.4179 44.4448 39.6443C45.57 38.8472 46.8359 38.4487 48.2425 38.4487C49.6491 38.4487 50.8681 38.7652 51.8996 39.3981C52.931 40.0077 53.7047 40.8399 54.2204 41.8948C54.7596 42.9497 55.0292 44.1336 55.0292 45.4464V50.51C55.0292 53.6279 55.0878 56.1246 55.205 58H47.2931ZM62.7411 36.7257C61.2642 36.7257 60.1624 36.3623 59.4357 35.6356C58.7324 34.9089 58.3808 33.9594 58.3808 32.7873C58.3808 31.6386 58.7324 30.6892 59.4357 29.939C60.1624 29.1888 61.2642 28.8137 62.7411 28.8137C64.1477 28.8137 65.2261 29.2005 65.9762 29.9741C66.7264 30.7243 67.1015 31.662 67.1015 32.7873C67.1015 33.9594 66.7381 34.9089 66.0114 35.6356C65.2847 36.3623 64.1946 36.7257 62.7411 36.7257ZM58.6621 58C58.8262 54.2257 58.9082 51.1078 58.9082 48.6463C58.9082 45.716 58.8145 42.434 58.6269 38.8004H67.0663C66.8788 42.2933 66.785 45.5753 66.785 48.6463C66.785 51.225 66.867 54.3429 67.0311 58H58.6621ZM85.6209 38.4487C87.1447 38.4487 88.5161 38.8824 89.7351 39.7498C90.9542 40.6172 91.9036 41.801 92.5834 43.3014C93.2633 44.7783 93.6032 46.4075 93.6032 48.1892C93.6032 49.9474 93.2633 51.6118 92.5834 53.1825C91.9036 54.7297 90.9424 55.9839 89.7 56.9451C88.4809 57.8828 87.0861 58.3516 85.5154 58.3516C83.6869 58.3516 82.1162 57.9766 80.8034 57.2264C79.5141 56.4528 78.5529 55.2689 77.92 53.6748C77.92 55.011 77.9668 57.1561 78.0606 60.1099C78.1544 62.9699 78.2013 64.986 78.2013 66.1581H70.2542C70.3948 61.7977 70.4652 57.2381 70.4652 52.4792C70.4652 47.7203 70.3948 43.1607 70.2542 38.8004H77.0057L78.0255 43.1959C78.6819 41.5549 79.6664 40.3593 80.9792 39.6091C82.292 38.8355 83.8393 38.4487 85.6209 38.4487ZM81.8583 52.0221C82.9133 52.0221 83.7924 51.6939 84.4957 51.0375C85.2224 50.3577 85.5858 49.4785 85.5858 48.4002C85.5858 47.2046 85.2576 46.2317 84.6012 45.4816C83.9448 44.7314 83.0539 44.3563 81.9287 44.3563C80.6393 44.3563 79.6664 44.6728 79.0101 45.3057C78.3537 45.9152 78.0255 46.9467 78.0255 48.4002C78.0255 49.2207 78.2364 49.9122 78.6584 50.4749C79.0804 51.014 79.5844 51.4126 80.1705 51.6704C80.7565 51.9049 81.3192 52.0221 81.8583 52.0221ZM107.436 58.3516C105.467 58.3516 103.462 58.082 101.423 57.5429C99.4067 56.9802 97.5079 56.1363 95.7262 55.011L99.4185 49.9826C100.497 50.7562 101.798 51.3657 103.322 51.8111C104.845 52.2331 106.158 52.4441 107.26 52.4441C108.315 52.4441 109.124 52.3034 109.686 52.0221C110.272 51.7173 110.566 51.3305 110.566 50.8617C110.566 50.4866 110.425 50.1936 110.144 49.9826C109.862 49.7716 109.475 49.6661 108.983 49.6661C108.678 49.6661 108.327 49.6778 107.928 49.7013C107.553 49.7247 107.248 49.7481 107.014 49.7716C105.795 49.9122 104.541 49.9826 103.251 49.9826C101.165 49.9826 99.4653 49.5958 98.1525 48.8221C96.8632 48.0251 96.2185 46.7357 96.2185 44.9541C96.2185 42.8911 97.1914 41.297 99.1371 40.1718C101.083 39.0231 103.943 38.4487 107.717 38.4487C109.569 38.4487 111.433 38.7183 113.308 39.2575C115.207 39.7732 116.883 40.5586 118.337 41.6135L114.293 45.6925C112.957 44.9893 111.702 44.497 110.53 44.2156C109.382 43.9109 108.221 43.7585 107.049 43.7585C106.229 43.7585 105.525 43.9226 104.939 44.2508C104.353 44.579 104.06 44.9541 104.06 45.3761C104.06 45.7043 104.177 45.9621 104.412 46.1497C104.67 46.3372 104.998 46.431 105.396 46.431C105.795 46.431 106.346 46.3958 107.049 46.3255C108.76 46.2083 110.038 46.1497 110.882 46.1497C113.32 46.1497 115.207 46.5599 116.543 47.3804C117.88 48.2009 118.548 49.4551 118.548 51.143C118.548 53.6748 117.563 55.5151 115.594 56.6638C113.625 57.789 110.905 58.3516 107.436 58.3516ZM136.453 30.5719C136.453 32.1426 136.394 35.155 136.277 39.6091C136.23 40.3124 136.207 40.8282 136.207 41.1564C135.738 44.4618 135.445 47.3453 135.327 49.8067H128.822C128.705 47.3453 128.412 44.4618 127.943 41.1564L127.908 39.6091C127.767 35.9989 127.697 32.9865 127.697 30.5719H136.453ZM136.136 58.7033H127.978V52.4441H136.136V58.7033Z" fill="#210F37"/>
</svg>
