<svg width="60" height="19" viewBox="0 0 60 19" fill="none" xmlns="http://www.w3.org/2000/svg">
<g clip-path="url(#clip0_51_30)">
<path d="M3.10862 9.48602L10.2902 0.18161H13.9571L8.08242 7.74171L14.029 17.8993H10.4382L6.04384 10.3603L3.10862 14.1192V17.8993H0V0.18161H3.10862V9.49025V9.48602Z" fill="#210F37"/>
<path d="M19.5695 18.1907C15.8476 18.1907 13.145 15.4623 13.145 11.7034C13.145 7.94444 15.966 5.16959 19.5695 5.16959C23.173 5.16959 25.8713 7.97823 25.8713 11.7034C25.8713 12.0793 25.846 12.4256 25.791 12.7592H16.3044L16.3382 12.8902C16.7316 14.4951 17.9708 15.4919 19.5737 15.4919C20.8637 15.4919 22.0141 14.8795 22.6866 13.8447L25.0635 15.6312C23.9935 17.2151 21.8999 18.1907 19.5737 18.1907H19.5695ZM19.523 7.76705C17.975 7.76705 16.7231 8.79759 16.3382 10.3941L16.3086 10.525L16.9515 10.4152C18.6771 10.1153 20.445 10.1153 22.1706 10.4152L22.8135 10.525L22.7796 10.3941C22.3736 8.82293 21.0625 7.77127 19.523 7.77127V7.76705Z" fill="#210F37"/>
<path d="M27.542 0.194283H30.6506V17.8866H27.542V0.194283Z" fill="#210F37"/>
<path d="M32.3169 0.194283H35.4255V17.8866H32.3169V0.194283Z" fill="#210F37"/>
<path d="M39.1306 2.60169C40.0272 2.60169 40.6743 3.2859 40.6743 4.10526C40.6743 4.92462 40.0272 5.62995 39.1306 5.62995C38.2339 5.62995 37.5868 4.94574 37.5868 4.10526C37.5868 3.26478 38.2551 2.60169 39.1306 2.60169ZM37.5784 7.25601H40.6955V17.8866H37.5784V7.25601Z" fill="#210F37"/>
<path d="M55.2743 10.8038L55.2616 10.7151H48.5875V13.1563L52.652 13.1225C52.3517 14.8752 51.2182 15.7622 49.2812 15.7622C47.0819 15.7622 45.4832 14.0643 45.4832 11.7203C45.4832 9.37621 47.0819 7.67836 49.2812 7.67836C50.3639 7.67836 51.2986 8.07115 51.988 8.81448L52.0557 8.89051L53.9843 7.23489L53.9208 7.15464C52.8127 5.79889 51.3367 5.16536 49.2812 5.16536C45.5889 5.16536 42.7002 8.0458 42.7002 11.7203C42.7002 15.3947 45.5931 18.2414 49.2812 18.2414C52.9692 18.2414 55.3673 15.8129 55.3673 12.2017C55.3673 11.8216 55.3335 11.1965 55.2785 10.8038H55.2743Z" fill="#210F37"/>
</g>
<defs>
<clipPath id="clip0_51_30">
<rect width="59.4064" height="18.2414" fill="white"/>
</clipPath>
</defs>
</svg>
